<?xml version="1.0" standalone="no"?>
<!DOCTYPE svg PUBLIC "-//W3C//DTD SVG 20010904//EN"
 "http://www.w3.org/TR/2001/REC-SVG-20010904/DTD/svg10.dtd">
<svg version="1.0" xmlns="http://www.w3.org/2000/svg"
 width="50.000000pt" height="50.000000pt" viewBox="0 0 50.000000 50.000000"
 preserveAspectRatio="xMidYMid meet">

<g transform="translate(0.000000,50.000000) scale(0.100000,-0.100000)"
fill="#008000" stroke="none">
<path d="M0 451 c0 -5 9 -11 20 -14 19 -5 20 -14 20 -201 0 -124 4 -196 10
-196 6 0 10 14 10 30 0 20 5 30 15 30 8 0 15 -9 15 -20 0 -16 7 -20 30 -20 23
0 30 4 30 20 0 11 5 20 10 20 6 0 10 -9 10 -20 0 -18 7 -20 85 -20 78 0 85 2
85 20 0 11 5 20 10 20 6 0 10 -9 10 -20 0 -13 7 -20 20 -20 11 0 20 5 20 10 0
6 -4 10 -10 10 -5 0 -10 4 -10 10 0 5 26 10 58 12 l57 3 0 145 0 145 -217 3
c-201 2 -218 4 -218 20 0 10 -5 23 -12 30 -14 14 -48 16 -48 3z m230 -121 c0
-6 -30 -10 -70 -10 -40 0 -70 4 -70 10 0 6 30 10 70 10 40 0 70 -4 70 -10z
m170 0 c13 -9 11 -13 -10 -30 -34 -27 -40 -25 -40 10 0 32 20 40 50 20z m-68
-30 c6 -37 1 -42 -26 -28 -31 16 -31 16 -11 38 25 27 32 25 37 -10z m112 -16
c13 -33 7 -46 -16 -39 -38 12 -45 25 -24 41 25 18 32 18 40 -2z m-214 -4 c0
-6 -30 -10 -70 -10 -40 0 -70 4 -70 10 0 6 30 10 70 10 40 0 70 -4 70 -10z
m74 -30 c32 -12 33 -26 5 -41 -24 -12 -39 1 -39 34 0 20 1 20 34 7z m136 -40
c0 -9 -39 -44 -44 -39 -4 4 -9 48 -7 61 1 9 51 -13 51 -22z m-210 10 c0 -6
-30 -10 -70 -10 -40 0 -70 4 -70 10 0 6 30 10 70 10 40 0 70 -4 70 -10z m140
-30 c0 -32 -20 -40 -50 -20 -13 9 -11 13 10 30 34 27 40 25 40 -10z m-140 -20
c0 -6 -30 -10 -70 -10 -40 0 -70 4 -70 10 0 6 30 10 70 10 40 0 70 -4 70 -10z
m-100 -80 c0 -5 -4 -10 -10 -10 -5 0 -10 5 -10 10 0 6 5 10 10 10 6 0 10 -4
10 -10z m190 0 c0 -6 -28 -10 -65 -10 -37 0 -65 4 -65 10 0 6 28 10 65 10 37
0 65 -4 65 -10z"/>
</g>
</svg>
